<mxfile host="app.diagrams.net" agent="Mozilla/5.0 (Windows NT 10.0; Win64; x64) AppleWebKit/537.36 (KHTML, like Gecko) Chrome/131.0.0.0 Safari/537.36" version="24.8.9">
  <diagram id="dijq7EySqOm7LpBwnqDr" name="Page-1">
    <mxGraphModel dx="882" dy="1678" grid="1" gridSize="10" guides="1" tooltips="1" connect="1" arrows="1" fold="1" page="1" pageScale="1" pageWidth="850" pageHeight="1100" math="0" shadow="0">
      <root>
        <mxCell id="0" />
        <mxCell id="1" parent="0" />
        <mxCell id="zHZzTWJW-lVZE_Kibmkn-5" style="edgeStyle=orthogonalEdgeStyle;rounded=0;orthogonalLoop=1;jettySize=auto;html=1;exitX=1;exitY=0.5;exitDx=0;exitDy=0;entryX=0;entryY=0.5;entryDx=0;entryDy=0;" edge="1" parent="1" source="zHZzTWJW-lVZE_Kibmkn-1" target="zHZzTWJW-lVZE_Kibmkn-2">
          <mxGeometry relative="1" as="geometry" />
        </mxCell>
        <mxCell id="zHZzTWJW-lVZE_Kibmkn-1" value="User" style="rounded=1;whiteSpace=wrap;html=1;" vertex="1" parent="1">
          <mxGeometry x="80" y="160" width="120" height="80" as="geometry" />
        </mxCell>
        <mxCell id="zHZzTWJW-lVZE_Kibmkn-6" style="edgeStyle=orthogonalEdgeStyle;rounded=0;orthogonalLoop=1;jettySize=auto;html=1;exitX=1;exitY=0.5;exitDx=0;exitDy=0;" edge="1" parent="1" source="zHZzTWJW-lVZE_Kibmkn-2" target="zHZzTWJW-lVZE_Kibmkn-3">
          <mxGeometry relative="1" as="geometry" />
        </mxCell>
        <mxCell id="zHZzTWJW-lVZE_Kibmkn-24" style="edgeStyle=orthogonalEdgeStyle;rounded=0;orthogonalLoop=1;jettySize=auto;html=1;exitX=0.5;exitY=0;exitDx=0;exitDy=0;entryX=0;entryY=0.5;entryDx=0;entryDy=0;" edge="1" parent="1" source="zHZzTWJW-lVZE_Kibmkn-2" target="zHZzTWJW-lVZE_Kibmkn-18">
          <mxGeometry relative="1" as="geometry" />
        </mxCell>
        <mxCell id="zHZzTWJW-lVZE_Kibmkn-30" style="edgeStyle=orthogonalEdgeStyle;rounded=0;orthogonalLoop=1;jettySize=auto;html=1;exitX=0;exitY=0.5;exitDx=0;exitDy=0;entryX=1;entryY=0.5;entryDx=0;entryDy=0;" edge="1" parent="1" source="zHZzTWJW-lVZE_Kibmkn-2" target="zHZzTWJW-lVZE_Kibmkn-1">
          <mxGeometry relative="1" as="geometry" />
        </mxCell>
        <mxCell id="zHZzTWJW-lVZE_Kibmkn-35" style="edgeStyle=orthogonalEdgeStyle;rounded=0;orthogonalLoop=1;jettySize=auto;html=1;exitX=0.5;exitY=1;exitDx=0;exitDy=0;" edge="1" parent="1" source="zHZzTWJW-lVZE_Kibmkn-2" target="zHZzTWJW-lVZE_Kibmkn-32">
          <mxGeometry relative="1" as="geometry" />
        </mxCell>
        <mxCell id="zHZzTWJW-lVZE_Kibmkn-2" value="Load balancer" style="rounded=1;whiteSpace=wrap;html=1;" vertex="1" parent="1">
          <mxGeometry x="280" y="160" width="120" height="80" as="geometry" />
        </mxCell>
        <mxCell id="zHZzTWJW-lVZE_Kibmkn-7" style="edgeStyle=orthogonalEdgeStyle;rounded=0;orthogonalLoop=1;jettySize=auto;html=1;exitX=1;exitY=0.5;exitDx=0;exitDy=0;entryX=0;entryY=0.5;entryDx=0;entryDy=0;" edge="1" parent="1" source="zHZzTWJW-lVZE_Kibmkn-3" target="zHZzTWJW-lVZE_Kibmkn-4">
          <mxGeometry relative="1" as="geometry" />
        </mxCell>
        <mxCell id="zHZzTWJW-lVZE_Kibmkn-13" style="edgeStyle=orthogonalEdgeStyle;rounded=0;orthogonalLoop=1;jettySize=auto;html=1;exitX=0.5;exitY=1;exitDx=0;exitDy=0;entryX=0;entryY=0.5;entryDx=0;entryDy=0;" edge="1" parent="1" source="zHZzTWJW-lVZE_Kibmkn-3" target="zHZzTWJW-lVZE_Kibmkn-10">
          <mxGeometry relative="1" as="geometry" />
        </mxCell>
        <mxCell id="zHZzTWJW-lVZE_Kibmkn-16" style="edgeStyle=orthogonalEdgeStyle;rounded=0;orthogonalLoop=1;jettySize=auto;html=1;exitX=0.5;exitY=0;exitDx=0;exitDy=0;entryX=0;entryY=0.5;entryDx=0;entryDy=0;" edge="1" parent="1" source="zHZzTWJW-lVZE_Kibmkn-3" target="zHZzTWJW-lVZE_Kibmkn-9">
          <mxGeometry relative="1" as="geometry" />
        </mxCell>
        <mxCell id="zHZzTWJW-lVZE_Kibmkn-3" value="Compression server" style="rounded=1;whiteSpace=wrap;html=1;" vertex="1" parent="1">
          <mxGeometry x="480" y="160" width="120" height="80" as="geometry" />
        </mxCell>
        <mxCell id="zHZzTWJW-lVZE_Kibmkn-27" style="edgeStyle=orthogonalEdgeStyle;rounded=0;orthogonalLoop=1;jettySize=auto;html=1;exitX=1;exitY=0.5;exitDx=0;exitDy=0;entryX=1;entryY=0.75;entryDx=0;entryDy=0;" edge="1" parent="1" source="zHZzTWJW-lVZE_Kibmkn-4" target="zHZzTWJW-lVZE_Kibmkn-21">
          <mxGeometry relative="1" as="geometry">
            <Array as="points">
              <mxPoint x="860" y="200" />
              <mxPoint x="860" y="580" />
            </Array>
          </mxGeometry>
        </mxCell>
        <mxCell id="zHZzTWJW-lVZE_Kibmkn-4" value="NoSQL" style="rounded=1;whiteSpace=wrap;html=1;" vertex="1" parent="1">
          <mxGeometry x="680" y="160" width="120" height="80" as="geometry" />
        </mxCell>
        <mxCell id="zHZzTWJW-lVZE_Kibmkn-8" value="Posts upload" style="text;html=1;align=center;verticalAlign=middle;whiteSpace=wrap;rounded=0;" vertex="1" parent="1">
          <mxGeometry x="400" y="170" width="80" height="30" as="geometry" />
        </mxCell>
        <mxCell id="zHZzTWJW-lVZE_Kibmkn-26" style="edgeStyle=orthogonalEdgeStyle;rounded=0;orthogonalLoop=1;jettySize=auto;html=1;exitX=1;exitY=0.5;exitDx=0;exitDy=0;entryX=1;entryY=0.5;entryDx=0;entryDy=0;" edge="1" parent="1" source="zHZzTWJW-lVZE_Kibmkn-9" target="zHZzTWJW-lVZE_Kibmkn-21">
          <mxGeometry relative="1" as="geometry">
            <Array as="points">
              <mxPoint x="840" y="80" />
              <mxPoint x="840" y="560" />
            </Array>
          </mxGeometry>
        </mxCell>
        <mxCell id="zHZzTWJW-lVZE_Kibmkn-9" value="Blob storage" style="rounded=1;whiteSpace=wrap;html=1;" vertex="1" parent="1">
          <mxGeometry x="680" y="40" width="120" height="80" as="geometry" />
        </mxCell>
        <mxCell id="zHZzTWJW-lVZE_Kibmkn-46" style="edgeStyle=orthogonalEdgeStyle;rounded=0;orthogonalLoop=1;jettySize=auto;html=1;exitX=1;exitY=0.5;exitDx=0;exitDy=0;entryX=0.5;entryY=1;entryDx=0;entryDy=0;" edge="1" parent="1" source="zHZzTWJW-lVZE_Kibmkn-10" target="zHZzTWJW-lVZE_Kibmkn-21">
          <mxGeometry relative="1" as="geometry">
            <Array as="points">
              <mxPoint x="880" y="320" />
              <mxPoint x="880" y="620" />
              <mxPoint x="340" y="620" />
            </Array>
          </mxGeometry>
        </mxCell>
        <mxCell id="zHZzTWJW-lVZE_Kibmkn-10" value="SQL" style="rounded=1;whiteSpace=wrap;html=1;" vertex="1" parent="1">
          <mxGeometry x="680" y="280" width="120" height="80" as="geometry" />
        </mxCell>
        <mxCell id="zHZzTWJW-lVZE_Kibmkn-12" value="Texts" style="text;html=1;align=center;verticalAlign=middle;whiteSpace=wrap;rounded=0;" vertex="1" parent="1">
          <mxGeometry x="600" y="170" width="80" height="30" as="geometry" />
        </mxCell>
        <mxCell id="zHZzTWJW-lVZE_Kibmkn-14" value="Posts metadata" style="text;html=1;align=center;verticalAlign=middle;whiteSpace=wrap;rounded=0;" vertex="1" parent="1">
          <mxGeometry x="600" y="290" width="80" height="30" as="geometry" />
        </mxCell>
        <mxCell id="zHZzTWJW-lVZE_Kibmkn-17" value="Images and videos" style="text;html=1;align=center;verticalAlign=middle;whiteSpace=wrap;rounded=0;" vertex="1" parent="1">
          <mxGeometry x="600" y="50" width="80" height="30" as="geometry" />
        </mxCell>
        <mxCell id="zHZzTWJW-lVZE_Kibmkn-25" style="edgeStyle=orthogonalEdgeStyle;rounded=0;orthogonalLoop=1;jettySize=auto;html=1;exitX=1;exitY=0.5;exitDx=0;exitDy=0;entryX=1;entryY=0.25;entryDx=0;entryDy=0;" edge="1" parent="1" source="zHZzTWJW-lVZE_Kibmkn-18" target="zHZzTWJW-lVZE_Kibmkn-21">
          <mxGeometry relative="1" as="geometry" />
        </mxCell>
        <mxCell id="zHZzTWJW-lVZE_Kibmkn-18" value="SQL" style="rounded=1;whiteSpace=wrap;html=1;" vertex="1" parent="1">
          <mxGeometry x="680" y="-80" width="120" height="80" as="geometry" />
        </mxCell>
        <mxCell id="zHZzTWJW-lVZE_Kibmkn-20" value="User metadata" style="text;html=1;align=center;verticalAlign=middle;whiteSpace=wrap;rounded=0;" vertex="1" parent="1">
          <mxGeometry x="340" y="80" width="80" height="30" as="geometry" />
        </mxCell>
        <mxCell id="zHZzTWJW-lVZE_Kibmkn-48" style="edgeStyle=orthogonalEdgeStyle;rounded=0;orthogonalLoop=1;jettySize=auto;html=1;exitX=0.5;exitY=0;exitDx=0;exitDy=0;entryX=0.5;entryY=1;entryDx=0;entryDy=0;" edge="1" parent="1" source="zHZzTWJW-lVZE_Kibmkn-21" target="zHZzTWJW-lVZE_Kibmkn-36">
          <mxGeometry relative="1" as="geometry" />
        </mxCell>
        <mxCell id="zHZzTWJW-lVZE_Kibmkn-50" style="edgeStyle=orthogonalEdgeStyle;rounded=0;orthogonalLoop=1;jettySize=auto;html=1;exitX=0;exitY=0.5;exitDx=0;exitDy=0;entryX=0.5;entryY=1;entryDx=0;entryDy=0;" edge="1" parent="1" source="zHZzTWJW-lVZE_Kibmkn-21" target="zHZzTWJW-lVZE_Kibmkn-40">
          <mxGeometry relative="1" as="geometry" />
        </mxCell>
        <mxCell id="zHZzTWJW-lVZE_Kibmkn-21" value="Post generation server" style="rounded=1;whiteSpace=wrap;html=1;" vertex="1" parent="1">
          <mxGeometry x="280" y="520" width="120" height="80" as="geometry" />
        </mxCell>
        <mxCell id="zHZzTWJW-lVZE_Kibmkn-32" value="Application server" style="rounded=1;whiteSpace=wrap;html=1;" vertex="1" parent="1">
          <mxGeometry x="280" y="360" width="120" height="80" as="geometry" />
        </mxCell>
        <mxCell id="zHZzTWJW-lVZE_Kibmkn-47" style="edgeStyle=orthogonalEdgeStyle;rounded=0;orthogonalLoop=1;jettySize=auto;html=1;exitX=0;exitY=0.5;exitDx=0;exitDy=0;entryX=1;entryY=0.5;entryDx=0;entryDy=0;" edge="1" parent="1" source="zHZzTWJW-lVZE_Kibmkn-36" target="zHZzTWJW-lVZE_Kibmkn-32">
          <mxGeometry relative="1" as="geometry" />
        </mxCell>
        <mxCell id="zHZzTWJW-lVZE_Kibmkn-36" value="Post DB" style="rounded=1;whiteSpace=wrap;html=1;" vertex="1" parent="1">
          <mxGeometry x="480" y="360" width="120" height="80" as="geometry" />
        </mxCell>
        <mxCell id="zHZzTWJW-lVZE_Kibmkn-43" style="edgeStyle=orthogonalEdgeStyle;rounded=0;orthogonalLoop=1;jettySize=auto;html=1;exitX=1;exitY=0.5;exitDx=0;exitDy=0;entryX=0;entryY=0.5;entryDx=0;entryDy=0;" edge="1" parent="1" source="zHZzTWJW-lVZE_Kibmkn-40" target="zHZzTWJW-lVZE_Kibmkn-32">
          <mxGeometry relative="1" as="geometry" />
        </mxCell>
        <mxCell id="zHZzTWJW-lVZE_Kibmkn-40" value="CDN" style="rounded=1;whiteSpace=wrap;html=1;" vertex="1" parent="1">
          <mxGeometry x="80" y="360" width="120" height="80" as="geometry" />
        </mxCell>
        <mxCell id="zHZzTWJW-lVZE_Kibmkn-42" value="Images and videos" style="text;html=1;align=center;verticalAlign=middle;whiteSpace=wrap;rounded=0;" vertex="1" parent="1">
          <mxGeometry x="200" y="410" width="80" height="30" as="geometry" />
        </mxCell>
        <mxCell id="zHZzTWJW-lVZE_Kibmkn-51" value="Images and videos" style="text;html=1;align=center;verticalAlign=middle;whiteSpace=wrap;rounded=0;" vertex="1" parent="1">
          <mxGeometry x="160" y="570" width="80" height="30" as="geometry" />
        </mxCell>
        <mxCell id="zHZzTWJW-lVZE_Kibmkn-54" value="Post ID, texts" style="text;html=1;align=center;verticalAlign=middle;whiteSpace=wrap;rounded=0;" vertex="1" parent="1">
          <mxGeometry x="240" y="480" width="80" height="30" as="geometry" />
        </mxCell>
      </root>
    </mxGraphModel>
  </diagram>
</mxfile>
